<?xml version="1.0"?>
<svg xmlns="http://www.w3.org/2000/svg" height="512px" viewBox="-31 0 479 480" width="512px" class=""><g><path d="m136.5 272c0 66.273438 53.726562 120 120 120s120-53.726562 120-120-53.726562-120-120-120c-66.242188.074219-119.925781 53.757812-120 120zm88 98.910156v-26.910156h-16v20.167969c-5.640625-2.96875-10.996094-6.453125-16-10.398438v-9.609375c.023438-10.714844 7.117188-20.128906 17.40625-23.113281l17.394531-4.957031 24.398438 18.308594c2.84375 2.136718 6.757812 2.136718 9.601562 0l24.390625-18.308594 17.402344 4.964844c10.289062 2.976562 17.382812 12.390624 17.40625 23.105468v9.648438c-5.003906 3.949218-10.359375 7.429687-16 10.398437v-20.207031h-16v26.910156c-20.792969 6.785156-43.207031 6.785156-64 0zm58.71875-143.34375-3.558594-7.132812c-1.023437-2.058594-2.882812-3.574219-5.101562-4.164063-2.222656-.59375-4.585938-.199219-6.5 1.074219l-11.902344 7.9375c-6.566406 4.386719-14.289062 6.722656-22.183594 6.71875h-9.472656c-.0625-17.671875 14.214844-32.050781 31.886719-32.113281 17.675781-.0625 32.050781 14.214843 32.113281 31.890625-2.292969-.554688-4.226562-2.097656-5.28125-4.210938zm-49.246094 20.433594c11.054688.007812 21.863282-3.265625 31.054688-9.40625l4.382812-2.921875c2.519532 4.445313 6.410156 7.953125 11.089844 10v10.328125c0 13.253906-10.746094 24-24 24s-24-10.746094-24-24v-8zm22.527344 48c2.6875.003906 5.367188-.265625 8-.800781v8.800781c.027344 2.277344 1.03125 4.433594 2.761719 5.921875l-10.761719 8.078125-10.761719-8.078125c1.730469-1.488281 2.734375-3.644531 2.761719-5.921875v-8.800781c2.632812.535156 5.3125.804687 8 .800781zm104-24c.011719 24.472656-8.648438 48.15625-24.441406 66.847656-2.113282-15.738281-13.3125-28.746094-28.558594-33.183594l-27-7.710937v-10.160156c10.035156-7.492188 15.964844-19.269531 16-31.792969v-8c4.417969 0 8-3.582031 8-8v-8c0-26.507812-21.492188-48-48-48s-48 21.492188-48 48v8c0 4.417969 3.582031 8 8 8v8c.035156 12.523438 5.964844 24.300781 16 31.792969v10.160156l-26.992188 7.710937c-15.25 4.433594-26.449218 17.445313-28.566406 33.183594-29.617187-35.179687-32.613281-85.632812-7.371094-124.070312 25.246094-38.4375 72.738282-55.734375 116.789063-42.53125 44.046875 13.203125 74.199219 53.769531 74.140625 99.753906zm0 0" data-original="#000000" class="active-path" data-old_color="#488ecb" fill="#488ecb"/><path d="m376.5 64h16v-16h16v-16h-16v-16h-16v16h-16v16h16zm0 0" data-original="#000000" class="active-path" data-old_color="#488ecb" fill="#488ecb"/><path d="m320.5 80h48v16h-48zm0 0" data-original="#000000" class="active-path" data-old_color="#488ecb" fill="#488ecb"/><path d="m360.5 112h48v16h-48zm0 0" data-original="#000000" class="active-path" data-old_color="#488ecb" fill="#488ecb"/><path d="m376.5 416h-16v16h-16v16h16v16h16v-16h16v-16h-16zm0 0" data-original="#000000" class="active-path" data-old_color="#488ecb" fill="#488ecb"/><path d="m96.5 72h16v16h-16zm0 0" data-original="#000000" class="active-path" data-old_color="#488ecb" fill="#488ecb"/><path d="m128.5 72h16v16h-16zm0 0" data-original="#000000" class="active-path" data-old_color="#488ecb" fill="#488ecb"/><path d="m160.5 72h16v16h-16zm0 0" data-original="#000000" class="active-path" data-old_color="#488ecb" fill="#488ecb"/><path d="m192.5 72h16v16h-16zm0 0" data-original="#000000" class="active-path" data-old_color="#488ecb" fill="#488ecb"/><path d="m416.5 272c-.09375-69.84375-45.402344-131.585938-112-152.625v-79.375c-.027344-22.082031-17.917969-39.9726562-40-40h-224c-22.082031.0273438-39.972656 17.917969-40 40v400c.027344 22.082031 17.917969 39.972656 40 40h224c22.082031-.027344 39.972656-17.917969 40-40v-15.375c66.597656-21.039062 111.90625-82.78125 112-152.625zm-16 0c0 79.527344-64.472656 144-144 144s-144-64.472656-144-144 64.472656-144 144-144c79.492188.09375 143.90625 64.507812 144 144zm-304-256h112v16c0 4.417969-3.582031 8-8 8h-96c-4.417969 0-8-3.582031-8-8zm192 424c0 13.253906-10.746094 24-24 24h-224c-13.253906 0-24-10.746094-24-24v-400c0-13.253906 10.746094-24 24-24h40v16c0 13.253906 10.746094 24 24 24h96c13.253906 0 24-10.746094 24-24v-16h40c13.253906 0 24 10.746094 24 24v75.199219c-63.570312-12.90625-128.644531 13.84375-164.757812 67.734375-36.109376 53.886718-36.109376 124.246094 0 178.132812 36.113281 53.890625 101.1875 80.640625 164.757812 67.734375zm0 0" data-original="#000000" class="active-path" data-old_color="#488ecb" fill="#488ecb"/><path d="m126.957031 130.058594 12.261719-10.285156 10.285156 12.257812-12.265625 10.285156zm0 0" data-original="#000000" class="active-path" data-old_color="#488ecb" fill="#488ecb"/><path d="m104.273438 154.71875 10.285156-12.257812 12.257812 10.28125-10.28125 12.261718zm0 0" data-original="#000000" class="active-path" data-old_color="#488ecb" fill="#488ecb"/><path d="m86.230469 182.921875 7.996093-13.847656 13.847657 7.996093-7.996094 13.847657zm0 0" data-original="#000000" class="active-path" data-old_color="#488ecb" fill="#488ecb"/><path d="m73.339844 213.847656 5.472656-15.035156 15.035156 5.46875-5.472656 15.035156zm0 0" data-original="#000000" class="active-path" data-old_color="#488ecb" fill="#488ecb"/><path d="m66.027344 246.542969 2.777344-15.757813 15.757812 2.777344-2.777344 15.757812zm0 0" data-original="#000000" class="active-path" data-old_color="#488ecb" fill="#488ecb"/><path d="m64.5 264h16v16h-16zm0 0" data-original="#000000" class="active-path" data-old_color="#488ecb" fill="#488ecb"/><path d="m66.027344 297.460938 15.753906-2.777344 2.777344 15.753906-15.753906 2.777344zm0 0" data-original="#000000" class="active-path" data-old_color="#488ecb" fill="#488ecb"/><path d="m73.335938 330.144531 15.035156-5.46875 5.472656 15.035157-15.035156 5.46875zm0 0" data-original="#000000" class="active-path" data-old_color="#488ecb" fill="#488ecb"/><path d="m86.230469 361.074219 13.847656-8 8 13.847656-13.847656 8zm0 0" data-original="#000000" class="active-path" data-old_color="#488ecb" fill="#488ecb"/><path d="m104.273438 389.285156 12.261718-10.28125 10.28125 12.257813-12.257812 10.28125zm0 0" data-original="#000000" class="active-path" data-old_color="#488ecb" fill="#488ecb"/><path d="m126.960938 413.941406 10.277343-12.261718 12.269531 10.285156-10.28125 12.261718zm0 0" data-original="#000000" class="active-path" data-old_color="#488ecb" fill="#488ecb"/><path d="m153.578125 434.285156 8-13.859375 13.855469 8-8 13.859375zm0 0" data-original="#000000" class="active-path" data-old_color="#488ecb" fill="#488ecb"/></g> </svg>
