<?xml version="1.0"?>
<svg xmlns="http://www.w3.org/2000/svg" height="512px" viewBox="0 0 512 512" width="512px" class=""><g><path d="m469.332031 0h-426.664062c-23.554688.0273438-42.6406252 19.113281-42.667969 42.667969v315.730469c.0273438 23.554687 19.113281 42.640624 42.667969 42.667968h145.066406v25.601563c-32.976563.035156-59.695313 26.757812-59.734375 59.730469 0 14.140624 11.460938 25.601562 25.601562 25.601562h204.796876c14.140624 0 25.601562-11.460938 25.601562-25.601562-.039062-32.972657-26.757812-59.695313-59.734375-59.730469v-25.601563h145.066406c23.554688-.027344 42.640625-19.113281 42.667969-42.667968v-315.730469c-.027344-23.554688-19.113281-42.6406252-42.667969-42.667969zm-102.398437 486.398438c0 4.714843-3.820313 8.535156-8.535156 8.535156h-204.796876c-4.714843 0-8.535156-3.820313-8.535156-8.535156.027344-23.550782 19.113282-42.636719 42.667969-42.664063h136.53125c23.554687.027344 42.640625 19.113281 42.667969 42.664063zm-59.734375-59.730469h-102.398438v-25.601563h102.398438zm187.734375-68.269531c0 14.140624-11.460938 25.601562-25.601563 25.601562h-426.664062c-14.140625 0-25.601563-11.460938-25.601563-25.601562v-315.730469c0-14.140625 11.460938-25.601563 25.601563-25.601563h426.664062c14.140625 0 25.601563 11.460938 25.601563 25.601563zm0 0" data-original="#000000" class="active-path" data-old_color="#488ecb" fill="#488ecb"/><path d="m460.800781 34.132812h-409.601562c-9.425781 0-17.066407 7.640626-17.066407 17.066407v264.535156c0 9.425781 7.640626 17.066406 17.066407 17.066406h204.519531l2.054688 13.34375c.785156 5.230469 4.722656 9.433594 9.890624 10.546875.921876.203125 1.859376.308594 2.800782.308594 4.273437 0 8.257812-2.148438 10.605468-5.71875l11.015626-16.535156 29.492187 32c4.789063 4.820312 11.304687 7.523437 18.101563 7.5 9.808593.007812 18.753906-5.605469 23.019531-14.4375 4.265625-8.835938 3.089843-19.332032-3.019531-27.007813h101.121093c9.425781 0 17.066407-7.640625 17.066407-17.066406v-264.535156c0-9.425781-7.640626-17.066407-17.066407-17.066407zm0 17.066407v51.199219h-409.601562v-51.199219zm-204.800781 145.066406c-9.425781 0-17.066406-7.640625-17.066406-17.066406s7.640625-17.066407 17.066406-17.066407 17.066406 7.640626 17.066406 17.066407-7.640625 17.066406-17.066406 17.066406zm-8.535156 17.066406h17.070312c14.136719 0 25.597656 11.460938 25.597656 25.601563v13.421875l-28.902343-12.382813c-4.273438-1.824218-9.199219-1.191406-12.875 1.65625-3.671875 2.851563-5.511719 7.464844-4.804688 12.058594l2.976563 19.378906h-24.660156v-34.132812c0-14.140625 11.460937-25.601563 25.597656-25.601563zm98.253906 141.355469c-3.238281 3.25-8.464844 3.359375-11.835938.246094l-36.605468-39.730469c-.273438-.21875-.558594-.417969-.855469-.597656-.222656-.253907-.460937-.492188-.714844-.714844-.199219-.136719-.429687-.144531-.632812-.265625-.503907-.265625-1.03125-.480469-1.578125-.640625-.511719-.175781-1.035156-.304687-1.570313-.375-.523437-.050781-1.046875-.050781-1.570312 0-.554688.027344-1.109375.109375-1.648438.25-.492187.152344-.96875.347656-1.425781.585937-.53125.25-1.035156.554688-1.5.914063-.199219.101563-.394531.21875-.582031.351563-.21875.269531-.421875.554687-.605469.851562-.25.222656-.484375.464844-.707031.71875l-10.941407 16.417969-11.382812-73.996094 33.75 14.464844 42.625 18.269531-18.507812 2.324219c-.292969.078125-.578126.175781-.855469.289062-.550781.121094-1.085938.300781-1.59375.535157-.523438.230468-1.023438.519531-1.484375.855468-.257813.136719-.511719.289063-.753906.453125-.152344.183594-.296876.375-.425782.578125-.390625.425782-.730468.894532-1.023437 1.390625-.289063.445313-.527344.921875-.71875 1.417969-.347657 1.054688-.515625 2.164062-.5 3.277344 0 .238281-.085938.460937-.0625.707031.027343.246094.214843.539063.28125.855469.125.554687.304687 1.097656.539062 1.621094.261719.515624.574219 1.003906.9375 1.457031.132813.25.277344.492187.4375.726562l20.300781 22.375 11.195313 12.304688c1.605469 1.597656 2.511719 3.769531 2.515625 6.039062.003906 2.265625-.898438 4.441407-2.5 6.042969zm38.28125-158.421875c-9.425781 0-17.066406-7.640625-17.066406-17.066406s7.640625-17.066407 17.066406-17.066407 17.066406 7.640626 17.066406 17.066407-7.640625 17.066406-17.066406 17.066406zm-8.535156 17.066406h17.070312c14.136719 0 25.597656 11.460938 25.597656 25.601563v34.132812h-68.265624v-34.132812c0-14.140625 11.460937-25.601563 25.597656-25.601563zm-31.121094 102.402344-6.441406-7.09375 17.816406-2.226563c3.746094-.402343 7.105469-2.46875 9.160156-5.628906 2.050782-3.15625 2.574219-7.066406 1.421875-10.652344h51.832031c9.425782 0 17.066407-7.640624 17.066407-17.066406v-34.132812c-.054688-16.539063-9.660157-31.554688-24.652344-38.535156 11.261719-13.9375 9.832031-34.210938-3.277344-46.429688-13.109375-12.214844-33.429687-12.214844-46.539062 0-13.109375 12.21875-14.539063 32.492188-3.277344 46.429688-14.992187 6.980468-24.597656 21.996093-24.652344 38.535156v31.71875l-25.601562-10.972656v-20.746094c-.054688-16.539063-9.660157-31.554688-24.652344-38.535156 11.261719-13.9375 9.832031-34.210938-3.277344-46.429688-13.109375-12.214844-33.429687-12.214844-46.539062 0-13.109375 12.21875-14.539063 32.492188-3.277344 46.429688-14.992187 6.980468-24.597656 21.996093-24.652344 38.535156v34.132812c0 9.425782 7.640625 17.066406 17.066407 17.066406h27.304687l3.945313 25.601563h-201.917969v-196.269531h409.601562v196.269531zm0 0" data-original="#000000" class="active-path" data-old_color="#488ecb" fill="#488ecb"/><path d="m460.800781 435.199219c-28.265625.027343-51.171875 22.933593-51.199219 51.199219 0 14.140624 11.460938 25.601562 25.597657 25.601562h51.199219c14.140624 0 25.601562-11.460938 25.601562-25.601562-.027344-28.265626-22.933594-51.171876-51.199219-51.199219zm25.597657 59.734375h-51.199219c-4.710938 0-8.53125-3.820313-8.53125-8.535156.058593-15.515626 10.574219-29.039063 25.597656-32.921876v7.324219c0 4.710938 3.820313 8.53125 8.535156 8.53125 4.710938 0 8.53125-3.820312 8.53125-8.53125v-7.324219c15.027344 3.882813 25.542969 17.40625 25.601563 32.921876 0 4.714843-3.820313 8.535156-8.535156 8.535156zm0 0" data-original="#000000" class="active-path" data-old_color="#488ecb" fill="#488ecb"/><path d="m85.332031 76.800781c0 4.710938-3.820312 8.53125-8.53125 8.53125-4.714843 0-8.535156-3.820312-8.535156-8.53125 0-4.714843 3.820313-8.535156 8.535156-8.535156 4.710938 0 8.53125 3.820313 8.53125 8.535156zm0 0" data-original="#000000" class="active-path" data-old_color="#488ecb" fill="#488ecb"/><path d="m119.464844 76.800781c0 4.710938-3.820313 8.53125-8.53125 8.53125-4.714844 0-8.535156-3.820312-8.535156-8.53125 0-4.714843 3.820312-8.535156 8.535156-8.535156 4.710937 0 8.53125 3.820313 8.53125 8.535156zm0 0" data-original="#000000" class="active-path" data-old_color="#488ecb" fill="#488ecb"/><path d="m153.601562 76.800781c0 4.710938-3.820312 8.53125-8.535156 8.53125-4.710937 0-8.53125-3.820312-8.53125-8.53125 0-4.714843 3.820313-8.535156 8.53125-8.535156 4.714844 0 8.535156 3.820313 8.535156 8.535156zm0 0" data-original="#000000" class="active-path" data-old_color="#488ecb" fill="#488ecb"/><path d="m154.546875 200.398438c11.261719-13.9375 9.832031-34.210938-3.277344-46.429688-13.109375-12.214844-33.429687-12.214844-46.539062 0-13.109375 12.21875-14.539063 32.492188-3.277344 46.429688-14.992187 6.980468-24.597656 21.996093-24.652344 38.535156v34.132812c0 9.425782 7.640625 17.066406 17.066407 17.066406h68.265624c9.425782 0 17.066407-7.640624 17.066407-17.066406v-34.132812c-.054688-16.539063-9.660157-31.554688-24.652344-38.535156zm-26.546875-38.265626c9.425781 0 17.066406 7.640626 17.066406 17.066407s-7.640625 17.066406-17.066406 17.066406-17.066406-7.640625-17.066406-17.066406 7.640625-17.066407 17.066406-17.066407zm-34.132812 110.933594v-34.132812c0-14.140625 11.460937-25.601563 25.597656-25.601563h17.070312c14.136719 0 25.597656 11.460938 25.597656 25.601563v34.132812zm0 0" data-original="#000000" class="active-path" data-old_color="#488ecb" fill="#488ecb"/><path d="m273.066406 460.800781h-34.132812c-4.714844 0-8.535156 3.820313-8.535156 8.53125 0 4.714844 3.820312 8.535157 8.535156 8.535157h34.132812c4.714844 0 8.535156-3.820313 8.535156-8.535157 0-4.710937-3.820312-8.53125-8.535156-8.53125zm0 0" data-original="#000000" class="active-path" data-old_color="#488ecb" fill="#488ecb"/></g> </svg>
